<?xml version="1.0" encoding="utf-8"?>
<!-- Generator: Adobe Illustrator 22.1.0, SVG Export Plug-In . SVG Version: 6.00 Build 0)  -->
<svg version="1.1" id="Layer_1" xmlns="http://www.w3.org/2000/svg" xmlns:xlink="http://www.w3.org/1999/xlink" x="0px" y="0px"
	 viewBox="0 0 32 32" style="enable-background:new 0 0 32 32;" xml:space="preserve">
<style>
	path{fill:#FFF;}
</style>
<g>
	<path d="M27.4,14.9l-6.5-2.8c-0.7-0.3-1.4-0.3-2.1,0c-0.5,0.3-0.9,0.6-1.2,1.1c-0.1-1-0.3-1.9-0.8-2.8l-2.4-4.9
		c-0.6-1.3-2.2-1.8-3.5-1.2l-6.4,3C3.9,7.6,3.4,8.2,3.1,8.9c-0.2,0.7-0.2,1.3,0.1,2l2.4,4.9c1.3,2.7,4.1,4.4,7.1,4.4
		c0.6,0,1.1-0.1,1.7-0.2h0.1l0.1-0.1c0.1-0.1,0.2-0.2,0.3-0.3c-0.8,3,0.4,6.3,3,8.3L18,28h0.1c0.4,0,0.9,0,1.3,0
		c3.1,0,6-1.8,7.2-4.7l2.1-5C29.4,17,28.7,15.5,27.4,14.9z M11.5,8.1c0.7-0.3,1.3-0.3,1.5,0c0.2,0.3-0.3,0.9-1,1.2s-1.3,0.3-1.5,0
		S10.8,8.5,11.5,8.1z M6.3,11.3c-0.2-0.3,0.3-0.8,0.9-1.2c0.7-0.3,1.3-0.3,1.5,0c0.2,0.3-0.2,0.9-0.9,1.2
		C7.1,11.7,6.5,11.6,6.3,11.3z M8.2,14.9c0,0,4.1,0.8,6.4-3C14.6,11.9,14.6,19.5,8.2,14.9z M27.9,17.9l-2.1,5
		c-1.2,2.8-4.3,4.5-7.4,4c-2.5-2-3.4-5.3-2.2-8.1l2.1-5c0.2-0.4,0.5-0.7,0.9-0.8c0.4-0.2,0.9-0.2,1.3,0l6.5,2.8
		C27.8,16.2,28.2,17.1,27.9,17.9z"/>
	<path d="M24.8,17.8c-0.7-0.3-1.4-0.3-1.5,0.1c-0.1,0.3,0.3,0.8,1,1.1s1.4,0.3,1.5-0.1C25.9,18.5,25.5,18.1,24.8,17.8z"/>
	<path d="M19.9,17.2c0.7,0.3,1.4,0.3,1.5-0.1c0.1-0.3-0.3-0.8-1-1.1c-0.7-0.3-1.4-0.3-1.5,0.1C18.8,16.4,19.3,16.9,19.9,17.2z"/>
	<path d="M17.5,19.8c0.7,7.8,6.5,2.8,6.5,2.8C19.6,23.5,17.5,19.8,17.5,19.8z"/>
</g>
</svg>
