<?xml version="1.0" encoding="utf-8"?>
<!-- Generator: Adobe Illustrator 22.1.0, SVG Export Plug-In . SVG Version: 6.00 Build 0)  -->
<svg version="1.1" id="Layer_1" xmlns="http://www.w3.org/2000/svg" xmlns:xlink="http://www.w3.org/1999/xlink" x="0px" y="0px"
	 viewBox="0 0 32 32" style="enable-background:new 0 0 32 32;" xml:space="preserve">
<style type="text/css">
	.st0{fill:#FFFFFF;stroke:#000000;stroke-miterlimit:10;}
	.st1{stroke:#000000;stroke-miterlimit:10;}
	.st2{fill:#FFFFFF;}
	.st3{fill:none;stroke:#000000;stroke-miterlimit:10;}
	.st4{fill:none;stroke:#000000;stroke-linecap:round;stroke-linejoin:round;stroke-miterlimit:10;}
	.st5{fill:none;stroke:#000000;stroke-linejoin:round;stroke-miterlimit:10;}
	.st6{fill:none;stroke:#000000;stroke-width:2;stroke-miterlimit:10;}
	.st7{stroke:#FFFFFF;stroke-miterlimit:10;}
	.st8{fill:#FFFFFF;stroke:#000000;stroke-linejoin:round;stroke-miterlimit:10;}
	.st9{stroke:#000000;stroke-linejoin:round;stroke-miterlimit:10;}
	.st10{fill:none;stroke:#000000;stroke-width:2;stroke-linecap:round;stroke-linejoin:round;stroke-miterlimit:10;}
	.st11{fill:none;stroke:#000000;stroke-width:2;stroke-linecap:round;stroke-miterlimit:10;}
	.st12{fill:none;stroke:#000000;stroke-width:3;stroke-linecap:round;stroke-linejoin:round;stroke-miterlimit:10;}
	.st13{fill:none;stroke:#DDDDDD;stroke-miterlimit:10;}
	path,ellipse{fill:#FFF;}
</style>
<g>
	<path d="M30.1,6.3c0.8-0.5,1.1-1.5,0.7-2.4s-1.5-1.2-2.3-0.7s-1.1,1.5-0.7,2.4C28.2,6.4,29.3,6.7,30.1,6.3z"/>
	<path d="M30.3,6.9c-0.7,0.4-1.6,0.3-2.3-0.2L28.2,9c-0.2,0-0.5,0.1-0.7,0.3l-5.5,4.3l-4.3-2.8c-0.2-0.3-0.5-0.6-0.9-0.8L14,9l-3,6
		L8,9l-2.9,1.1c-0.2,0.1-0.4,0.2-0.5,0.3c-0.2,0.1-0.4,0.3-0.5,0.5l-3.6,6.4c-0.2,0.3-0.2,0.7-0.2,1l1.7,8.4C2.2,27.5,2.9,28,3.6,28
		c0.1,0,0.2,0,0.3,0c0.2,0,0.3-0.1,0.5-0.2L4,30h14l-1.8-10.9l1.2-4.9l4,2.6c0.2,0.2,0.5,0.2,0.8,0.2c0.3,0,0.7-0.1,0.9-0.3l5.5-4.4
		c0,0.3-0.1,0.6-0.2,0.8c-0.3,0.7-0.6,0.6-1.2,0.5c-0.1,0-0.1,0-0.2,0l0,0.3c0.1,0,0.2,0,0.2,0c0.3,0.1,0.7,0.1,1,0
		c0.2-0.1,0.4-0.3,0.5-0.7c0.1-0.3,0.2-0.7,0.2-1.1c0.1,0,0.3-0.1,0.3-0.3l0,0l0.2-0.2c0.6-0.5,0.7-1.4,0.3-2l0.7-2.8
		C30.4,6.9,30.3,6.9,30.3,6.9z M4.8,25l-1.4-6.7l1.5-2.7L5.8,19L4.8,25z"/>
	<ellipse cx="11" cy="5" rx="3.5" ry="4"/>
</g>
</svg>
