<?xml version="1.0" encoding="utf-8"?>
<!-- Generator: Adobe Illustrator 22.1.0, SVG Export Plug-In . SVG Version: 6.00 Build 0)  -->
<svg version="1.1" id="Layer_1" xmlns="http://www.w3.org/2000/svg" xmlns:xlink="http://www.w3.org/1999/xlink" x="0px" y="0px"
	 width="116px" height="20px" viewBox="0 0 116 20" style="enable-background:new 0 0 116 20;" xml:space="preserve">
<style type="text/css">
	.st0{fill:#0158FF;}
	.st1{enable-background:new    ;}
	.st2{fill:#FFFFFF;}
</style>
<g>
	<g>
		<g>
			<path class="st0" d="M75.8,20H2.2c-1.1,0-2-0.9-2-2V2c0-1.1,0.9-2,2-2h80c1.4,0,2.4,1.4,1.9,2.7l-6.4,16
				C77.4,19.5,76.6,20,75.8,20z"/>
		</g>
		<g class="st1">
			<path class="st2" d="M14.5,14.5H9.2v-0.7c0-0.3,0-0.5,0.1-0.7s0.2-0.5,0.3-0.7s0.3-0.4,0.4-0.6s0.3-0.4,0.5-0.5s0.4-0.3,0.6-0.5
				s0.4-0.3,0.6-0.5c0.2-0.2,0.3-0.3,0.5-0.4s0.3-0.3,0.4-0.5s0.2-0.3,0.2-0.5S13,8.6,13,8.4c0-0.2,0-0.4-0.1-0.6s-0.2-0.3-0.3-0.4
				s-0.3-0.2-0.4-0.3s-0.4-0.1-0.6-0.1c-0.3,0-0.7,0.1-1,0.2s-0.7,0.4-1,0.7V6.8c0.2-0.1,0.3-0.2,0.5-0.3s0.4-0.2,0.5-0.2
				S11,6.1,11.2,6s0.4,0,0.7,0c0.4,0,0.7,0,1,0.1s0.6,0.2,0.8,0.4s0.4,0.4,0.5,0.7s0.2,0.6,0.2,1c0,0.3,0,0.6-0.1,0.9
				S14,9.7,13.9,10s-0.3,0.5-0.6,0.7s-0.5,0.4-0.7,0.7c-0.2,0.2-0.5,0.4-0.7,0.5s-0.4,0.3-0.6,0.5s-0.3,0.3-0.4,0.5
				s-0.2,0.3-0.2,0.5v0h3.8V14.5z"/>
			<path class="st2" d="M18.6,14.7c-0.9,0-1.6-0.4-2-1.1s-0.7-1.7-0.7-3.1c0-1.5,0.3-2.6,0.8-3.4S17.8,6,18.8,6
				c1.8,0,2.8,1.4,2.8,4.3c0,1.4-0.3,2.5-0.8,3.3S19.5,14.7,18.6,14.7z M18.7,7.1c-1,0-1.5,1.1-1.5,3.4c0,2.1,0.5,3.2,1.5,3.2
				c1,0,1.5-1.1,1.5-3.2C20.1,8.2,19.7,7.1,18.7,7.1z"/>
			<path class="st2" d="M25.6,6v8.6h-1.4V7.6c-0.2,0.2-0.5,0.3-0.8,0.4s-0.6,0.2-1,0.3V7.2c0.2-0.1,0.4-0.2,0.7-0.2s0.4-0.2,0.6-0.3
				s0.4-0.2,0.6-0.3S24.8,6.1,25,6H25.6z"/>
			<path class="st2" d="M27.3,12.2c0-0.2,0-0.5,0.1-0.7s0.2-0.4,0.3-0.6s0.3-0.4,0.5-0.5s0.4-0.3,0.6-0.4c-0.4-0.2-0.7-0.5-0.9-0.8
				s-0.3-0.7-0.3-1.1c0-0.3,0.1-0.6,0.2-0.9s0.3-0.5,0.5-0.7s0.5-0.3,0.8-0.4s0.6-0.2,1-0.2c0.4,0,0.7,0.1,1,0.2s0.6,0.3,0.8,0.5
				s0.4,0.4,0.5,0.7s0.2,0.5,0.2,0.8c0,0.4-0.1,0.7-0.3,1.1s-0.5,0.6-0.9,0.8c0.2,0.1,0.5,0.2,0.6,0.4s0.3,0.3,0.5,0.5
				s0.2,0.4,0.3,0.6s0.1,0.5,0.1,0.7c0,0.4-0.1,0.7-0.2,1s-0.3,0.6-0.6,0.8s-0.5,0.4-0.9,0.5s-0.7,0.2-1.1,0.2
				c-0.4,0-0.8-0.1-1.1-0.2s-0.6-0.3-0.9-0.5s-0.4-0.5-0.6-0.8S27.3,12.6,27.3,12.2z M28.7,12.1c0,0.2,0,0.5,0.1,0.6
				s0.2,0.4,0.3,0.5s0.3,0.2,0.5,0.3s0.4,0.1,0.6,0.1c0.2,0,0.4,0,0.6-0.1s0.3-0.2,0.5-0.3s0.2-0.3,0.3-0.5s0.1-0.4,0.1-0.6
				c0-0.2,0-0.4-0.1-0.6s-0.2-0.4-0.3-0.5s-0.3-0.3-0.5-0.3s-0.4-0.1-0.6-0.1c-0.2,0-0.4,0-0.6,0.1s-0.3,0.2-0.5,0.3
				s-0.2,0.3-0.3,0.5S28.7,11.9,28.7,12.1z M28.9,8.3c0,0.2,0,0.3,0.1,0.5s0.1,0.3,0.3,0.4s0.2,0.2,0.4,0.3s0.3,0.1,0.5,0.1
				s0.3,0,0.5-0.1s0.3-0.2,0.4-0.3s0.2-0.2,0.3-0.4s0.1-0.3,0.1-0.5c0-0.2,0-0.3-0.1-0.5S31.1,7.5,31,7.4s-0.2-0.2-0.4-0.3
				S30.3,7,30.1,7c-0.2,0-0.3,0-0.5,0.1s-0.3,0.2-0.4,0.3S29.1,7.7,29,7.8S28.9,8.1,28.9,8.3z"/>
		</g>
		<g class="st1">
			<path class="st2" d="M45.6,6.1l-3,8.4H41l-3-8.4h1.5l2.1,6.4c0.1,0.2,0.1,0.4,0.2,0.7h0c0-0.2,0.1-0.5,0.2-0.7l2.1-6.4H45.6z"/>
		</g>
		<g class="st1">
			<path class="st2" d="M50.3,14.7c-1.2,0-2.2-0.4-2.9-1.2s-1.1-1.8-1.1-3.1c0-1.4,0.4-2.4,1.1-3.2s1.8-1.2,3-1.2
				c1.2,0,2.1,0.4,2.9,1.2s1.1,1.8,1.1,3.1c0,1.4-0.4,2.5-1.1,3.3S51.6,14.7,50.3,14.7z M50.4,7.2c-0.8,0-1.4,0.3-1.9,0.9
				s-0.7,1.3-0.7,2.3c0,0.9,0.2,1.7,0.7,2.3s1.1,0.9,1.8,0.9c0.8,0,1.4-0.3,1.9-0.8s0.7-1.3,0.7-2.3c0-1-0.2-1.8-0.7-2.3
				S51.2,7.2,50.4,7.2z"/>
			<path class="st2" d="M60.6,14.5H56V6.1h1.4v7.2h3.3V14.5z"/>
			<path class="st2" d="M64.8,14.2V13c0.5,0.4,1.2,0.7,1.9,0.7c0.6,0,1-0.1,1.3-0.4s0.5-0.6,0.5-1c0-1-0.7-1.4-2.2-1.4h-0.7V9.7h0.6
				c1.3,0,1.9-0.4,1.9-1.3c0-0.8-0.5-1.2-1.5-1.2c-0.6,0-1.1,0.2-1.6,0.6V6.5c0.6-0.3,1.2-0.5,2-0.5c0.7,0,1.3,0.2,1.8,0.6
				s0.7,0.9,0.7,1.4c0,1.1-0.6,1.8-1.7,2.1v0c0.6,0.1,1.1,0.3,1.4,0.6s0.5,0.8,0.5,1.4c0,0.8-0.3,1.4-0.8,1.8s-1.3,0.7-2.2,0.7
				C66,14.7,65.3,14.5,64.8,14.2z"/>
		</g>
	</g>
	<g class="st1">
		<path class="st0" d="M88,14.6V6.2h2.7c0.8,0,1.5,0.2,1.9,0.5s0.7,0.8,0.7,1.4c0,0.5-0.1,0.9-0.4,1.2s-0.6,0.6-1.1,0.8v0
			c0.6,0.1,1,0.3,1.4,0.6c0.3,0.4,0.5,0.8,0.5,1.4c0,0.7-0.3,1.3-0.8,1.7s-1.3,0.7-2.1,0.7H88z M89.4,7.4v2.4h0.9
			c0.5,0,0.9-0.1,1.1-0.3s0.4-0.6,0.4-1c0-0.7-0.5-1.1-1.4-1.1H89.4z M89.4,10.9v2.7h1.2c0.5,0,0.9-0.1,1.2-0.4s0.4-0.6,0.4-1
			c0-0.9-0.6-1.3-1.8-1.3H89.4z"/>
	</g>
	<g class="st1">
		<path class="st0" d="M100.6,14.6h-4.7V6.2h4.5v1.2h-3.1v2.4h2.9V11h-2.9v2.5h3.3V14.6z"/>
	</g>
	<g class="st1">
		<path class="st0" d="M107.8,7.4h-2.4v7.2H104V7.4h-2.4V6.2h6.2V7.4z"/>
	</g>
	<g class="st1">
		<path class="st0" d="M115.4,14.6h-1.5l-0.8-2.1h-3.3l-0.7,2.1h-1.5l3.1-8.4h1.6L115.4,14.6z M112.8,11.4L111.6,8
			c0-0.1-0.1-0.3-0.1-0.5h0c0,0.2-0.1,0.4-0.1,0.5l-1.2,3.4H112.8z"/>
	</g>
</g>
</svg>
