<svg width="18" height="18" viewBox="0 0 18 18" fill="none" xmlns="http://www.w3.org/2000/svg">
<g clip-path="url(#clip0_7_2)">
<path d="M3.7729 3.22266H3.22266V3.77298H3.7729V3.22266Z" fill="black"/>
<path d="M4.32417 3.22266H3.77393V3.77298H4.32417V3.22266Z" fill="black"/>
<path d="M4.87348 3.22266H4.32324V3.77298H4.87348V3.22266Z" fill="black"/>
<path d="M5.42427 3.22266H4.87402V3.77298H5.42427V3.22266Z" fill="black"/>
<path d="M5.97456 3.22266H5.42432V3.77298H5.97456V3.22266Z" fill="black"/>
<path d="M6.52485 3.22266H5.97461V3.77298H6.52485V3.22266Z" fill="black"/>
<path d="M7.07563 3.22266H6.52539V3.77298H7.07563V3.22266Z" fill="black"/>
<path d="M8.17573 3.22266H7.62549V3.77298H8.17573V3.22266Z" fill="black"/>
<path d="M9.2768 3.22266H8.72656V3.77298H9.2768V3.22266Z" fill="black"/>
<path d="M9.82612 3.22266H9.27588V3.77298H9.82612V3.22266Z" fill="black"/>
<path d="M10.3774 3.22266H9.82715V3.77298H10.3774V3.22266Z" fill="black"/>
<path d="M11.4775 3.22266H10.9272V3.77298H11.4775V3.22266Z" fill="black"/>
<path d="M12.0263 3.22266H11.4761V3.77298H12.0263V3.22266Z" fill="black"/>
<path d="M12.5776 3.22266H12.0273V3.77298H12.5776V3.22266Z" fill="black"/>
<path d="M13.1269 3.22266H12.5767V3.77298H13.1269V3.22266Z" fill="black"/>
<path d="M13.6787 3.22266H13.1284V3.77298H13.6787V3.22266Z" fill="black"/>
<path d="M14.228 3.22266H13.6777V3.77298H14.228V3.22266Z" fill="black"/>
<path d="M14.7788 3.22266H14.2285V3.77298H14.7788V3.22266Z" fill="black"/>
<path d="M3.7729 3.76953H3.22266V4.31986H3.7729V3.76953Z" fill="black"/>
<path d="M7.07563 3.76953H6.52539V4.31986H7.07563V3.76953Z" fill="black"/>
<path d="M9.2768 3.76953H8.72656V4.31986H9.2768V3.76953Z" fill="black"/>
<path d="M9.82612 3.76953H9.27588V4.31986H9.82612V3.76953Z" fill="black"/>
<path d="M11.4775 3.76953H10.9272V4.31986H11.4775V3.76953Z" fill="black"/>
<path d="M14.7788 3.76953H14.2285V4.31986H14.7788V3.76953Z" fill="black"/>
<path d="M3.7729 4.31836H3.22266V4.86868H3.7729V4.31836Z" fill="black"/>
<path d="M4.87348 4.31836H4.32324V4.86868H4.87348V4.31836Z" fill="black"/>
<path d="M5.42427 4.31836H4.87402V4.86868H5.42427V4.31836Z" fill="black"/>
<path d="M5.97456 4.31836H5.42432V4.86868H5.97456V4.31836Z" fill="black"/>
<path d="M7.07563 4.31836H6.52539V4.86868H7.07563V4.31836Z" fill="black"/>
<path d="M8.17573 4.31836H7.62549V4.86868H8.17573V4.31836Z" fill="black"/>
<path d="M8.72602 4.31836H8.17578V4.86868H8.72602V4.31836Z" fill="black"/>
<path d="M9.82612 4.31836H9.27588V4.86868H9.82612V4.31836Z" fill="black"/>
<path d="M11.4775 4.31836H10.9272V4.86868H11.4775V4.31836Z" fill="black"/>
<path d="M12.5776 4.31836H12.0273V4.86868H12.5776V4.31836Z" fill="black"/>
<path d="M13.1269 4.31836H12.5767V4.86868H13.1269V4.31836Z" fill="black"/>
<path d="M13.6787 4.31836H13.1284V4.86868H13.6787V4.31836Z" fill="black"/>
<path d="M14.7788 4.31836H14.2285V4.86868H14.7788V4.31836Z" fill="black"/>
<path d="M3.7729 4.87695H3.22266V5.42728H3.7729V4.87695Z" fill="black"/>
<path d="M4.87348 4.87695H4.32324V5.42728H4.87348V4.87695Z" fill="black"/>
<path d="M5.42427 4.87695H4.87402V5.42728H5.42427V4.87695Z" fill="black"/>
<path d="M5.97456 4.87695H5.42432V5.42728H5.97456V4.87695Z" fill="black"/>
<path d="M7.07563 4.87695H6.52539V5.42728H7.07563V4.87695Z" fill="black"/>
<path d="M8.17573 4.87695H7.62549V5.42728H8.17573V4.87695Z" fill="black"/>
<path d="M8.72602 4.87695H8.17578V5.42728H8.72602V4.87695Z" fill="black"/>
<path d="M10.3774 4.87695H9.82715V5.42728H10.3774V4.87695Z" fill="black"/>
<path d="M11.4775 4.87695H10.9272V5.42728H11.4775V4.87695Z" fill="black"/>
<path d="M12.5776 4.87695H12.0273V5.42728H12.5776V4.87695Z" fill="black"/>
<path d="M13.1269 4.87695H12.5767V5.42728H13.1269V4.87695Z" fill="black"/>
<path d="M13.6787 4.87695H13.1284V5.42728H13.6787V4.87695Z" fill="black"/>
<path d="M14.7788 4.87695H14.2285V5.42728H14.7788V4.87695Z" fill="black"/>
<path d="M3.7729 5.42188H3.22266V5.9722H3.7729V5.42188Z" fill="black"/>
<path d="M4.87348 5.42188H4.32324V5.9722H4.87348V5.42188Z" fill="black"/>
<path d="M5.42427 5.42188H4.87402V5.9722H5.42427V5.42188Z" fill="black"/>
<path d="M5.97456 5.42188H5.42432V5.9722H5.97456V5.42188Z" fill="black"/>
<path d="M7.07563 5.42188H6.52539V5.9722H7.07563V5.42188Z" fill="black"/>
<path d="M8.17573 5.42188H7.62549V5.9722H8.17573V5.42188Z" fill="black"/>
<path d="M9.82612 5.42188H9.27588V5.9722H9.82612V5.42188Z" fill="black"/>
<path d="M11.4775 5.42188H10.9272V5.9722H11.4775V5.42188Z" fill="black"/>
<path d="M12.5776 5.42188H12.0273V5.9722H12.5776V5.42188Z" fill="black"/>
<path d="M13.1269 5.42188H12.5767V5.9722H13.1269V5.42188Z" fill="black"/>
<path d="M13.6787 5.42188H13.1284V5.9722H13.6787V5.42188Z" fill="black"/>
<path d="M14.7788 5.42188H14.2285V5.9722H14.7788V5.42188Z" fill="black"/>
<path d="M3.7729 5.97266H3.22266V6.52298H3.7729V5.97266Z" fill="black"/>
<path d="M7.07563 5.97266H6.52539V6.52298H7.07563V5.97266Z" fill="black"/>
<path d="M8.72602 5.97266H8.17578V6.52298H8.72602V5.97266Z" fill="black"/>
<path d="M9.2768 5.97266H8.72656V6.52298H9.2768V5.97266Z" fill="black"/>
<path d="M9.82612 5.97266H9.27588V6.52298H9.82612V5.97266Z" fill="black"/>
<path d="M10.3774 5.97266H9.82715V6.52298H10.3774V5.97266Z" fill="black"/>
<path d="M11.4775 5.97266H10.9272V6.52298H11.4775V5.97266Z" fill="black"/>
<path d="M14.7788 5.97266H14.2285V6.52298H14.7788V5.97266Z" fill="black"/>
<path d="M3.7729 6.52539H3.22266V7.07571H3.7729V6.52539Z" fill="black"/>
<path d="M4.32417 6.52539H3.77393V7.07571H4.32417V6.52539Z" fill="black"/>
<path d="M4.87348 6.52539H4.32324V7.07571H4.87348V6.52539Z" fill="black"/>
<path d="M5.42427 6.52539H4.87402V7.07571H5.42427V6.52539Z" fill="black"/>
<path d="M5.97456 6.52539H5.42432V7.07571H5.97456V6.52539Z" fill="black"/>
<path d="M6.52485 6.52539H5.97461V7.07571H6.52485V6.52539Z" fill="black"/>
<path d="M7.07563 6.52539H6.52539V7.07571H7.07563V6.52539Z" fill="black"/>
<path d="M8.17573 6.52539H7.62549V7.07571H8.17573V6.52539Z" fill="black"/>
<path d="M9.2768 6.52539H8.72656V7.07571H9.2768V6.52539Z" fill="black"/>
<path d="M10.3774 6.52539H9.82715V7.07571H10.3774V6.52539Z" fill="black"/>
<path d="M11.4775 6.52539H10.9272V7.07571H11.4775V6.52539Z" fill="black"/>
<path d="M12.0263 6.52539H11.4761V7.07571H12.0263V6.52539Z" fill="black"/>
<path d="M12.5776 6.52539H12.0273V7.07571H12.5776V6.52539Z" fill="black"/>
<path d="M13.1269 6.52539H12.5767V7.07571H13.1269V6.52539Z" fill="black"/>
<path d="M13.6787 6.52539H13.1284V7.07571H13.6787V6.52539Z" fill="black"/>
<path d="M14.228 6.52539H13.6777V7.07571H14.228V6.52539Z" fill="black"/>
<path d="M14.7788 6.52539H14.2285V7.07571H14.7788V6.52539Z" fill="black"/>
<path d="M9.82612 7.07031H9.27588V7.62064H9.82612V7.07031Z" fill="black"/>
<path d="M10.3774 7.07031H9.82715V7.62064H10.3774V7.07031Z" fill="black"/>
<path d="M3.7729 7.625H3.22266V8.17532H3.7729V7.625Z" fill="black"/>
<path d="M4.32417 7.625H3.77393V8.17532H4.32417V7.625Z" fill="black"/>
<path d="M4.87348 7.625H4.32324V8.17532H4.87348V7.625Z" fill="black"/>
<path d="M5.42427 7.625H4.87402V8.17532H5.42427V7.625Z" fill="black"/>
<path d="M7.07563 7.625H6.52539V8.17532H7.07563V7.625Z" fill="black"/>
<path d="M8.17573 7.625H7.62549V8.17532H8.17573V7.625Z" fill="black"/>
<path d="M8.72602 7.625H8.17578V8.17532H8.72602V7.625Z" fill="black"/>
<path d="M9.2768 7.625H8.72656V8.17532H9.2768V7.625Z" fill="black"/>
<path d="M9.82612 7.625H9.27588V8.17532H9.82612V7.625Z" fill="black"/>
<path d="M10.3774 7.625H9.82715V8.17532H10.3774V7.625Z" fill="black"/>
<path d="M10.9267 7.625H10.3765V8.17532H10.9267V7.625Z" fill="black"/>
<path d="M12.5776 7.625H12.0273V8.17532H12.5776V7.625Z" fill="black"/>
<path d="M13.1269 7.625H12.5767V8.17532H13.1269V7.625Z" fill="black"/>
<path d="M13.6787 7.625H13.1284V8.17532H13.6787V7.625Z" fill="black"/>
<path d="M14.7788 7.625H14.2285V8.17532H14.7788V7.625Z" fill="black"/>
<path d="M3.7729 8.17578H3.22266V8.72611H3.7729V8.17578Z" fill="black"/>
<path d="M4.32417 8.17578H3.77393V8.72611H4.32417V8.17578Z" fill="black"/>
<path d="M5.42427 8.17578H4.87402V8.72611H5.42427V8.17578Z" fill="black"/>
<path d="M5.97456 8.17578H5.42432V8.72611H5.97456V8.17578Z" fill="black"/>
<path d="M6.52485 8.17578H5.97461V8.72611H6.52485V8.17578Z" fill="black"/>
<path d="M8.17573 8.17578H7.62549V8.72611H8.17573V8.17578Z" fill="black"/>
<path d="M9.2768 8.17578H8.72656V8.72611H9.2768V8.17578Z" fill="black"/>
<path d="M9.82612 8.17578H9.27588V8.72611H9.82612V8.17578Z" fill="black"/>
<path d="M10.3774 8.17578H9.82715V8.72611H10.3774V8.17578Z" fill="black"/>
<path d="M10.9267 8.17578H10.3765V8.72611H10.9267V8.17578Z" fill="black"/>
<path d="M11.4775 8.17578H10.9272V8.72611H11.4775V8.17578Z" fill="black"/>
<path d="M12.0263 8.17578H11.4761V8.72611H12.0263V8.17578Z" fill="black"/>
<path d="M12.5776 8.17578H12.0273V8.72611H12.5776V8.17578Z" fill="black"/>
<path d="M14.228 8.17578H13.6777V8.72611H14.228V8.17578Z" fill="black"/>
<path d="M14.7788 8.17578H14.2285V8.72611H14.7788V8.17578Z" fill="black"/>
<path d="M5.42427 8.7207H4.87402V9.27103H5.42427V8.7207Z" fill="black"/>
<path d="M5.97456 8.7207H5.42432V9.27103H5.97456V8.7207Z" fill="black"/>
<path d="M7.07563 8.7207H6.52539V9.27103H7.07563V8.7207Z" fill="black"/>
<path d="M8.72602 8.7207H8.17578V9.27103H8.72602V8.7207Z" fill="black"/>
<path d="M9.82612 8.7207H9.27588V9.27103H9.82612V8.7207Z" fill="black"/>
<path d="M10.9267 8.7207H10.3765V9.27103H10.9267V8.7207Z" fill="black"/>
<path d="M12.0263 8.7207H11.4761V9.27103H12.0263V8.7207Z" fill="black"/>
<path d="M14.228 8.7207H13.6777V9.27103H14.228V8.7207Z" fill="black"/>
<path d="M14.7788 8.7207H14.2285V9.27103H14.7788V8.7207Z" fill="black"/>
<path d="M5.42427 9.27539H4.87402V9.82571H5.42427V9.27539Z" fill="black"/>
<path d="M6.52485 9.27539H5.97461V9.82571H6.52485V9.27539Z" fill="black"/>
<path d="M8.17573 9.27539H7.62549V9.82571H8.17573V9.27539Z" fill="black"/>
<path d="M9.2768 9.27539H8.72656V9.82571H9.2768V9.27539Z" fill="black"/>
<path d="M9.82612 9.27539H9.27588V9.82571H9.82612V9.27539Z" fill="black"/>
<path d="M12.0263 9.27539H11.4761V9.82571H12.0263V9.27539Z" fill="black"/>
<path d="M12.5776 9.27539H12.0273V9.82571H12.5776V9.27539Z" fill="black"/>
<path d="M13.1269 9.27539H12.5767V9.82571H13.1269V9.27539Z" fill="black"/>
<path d="M14.7788 9.27539H14.2285V9.82571H14.7788V9.27539Z" fill="black"/>
<path d="M4.32417 9.82422H3.77393V10.3745H4.32417V9.82422Z" fill="black"/>
<path d="M5.97456 9.82422H5.42432V10.3745H5.97456V9.82422Z" fill="black"/>
<path d="M6.52485 9.82422H5.97461V10.3745H6.52485V9.82422Z" fill="black"/>
<path d="M7.07563 9.82422H6.52539V10.3745H7.07563V9.82422Z" fill="black"/>
<path d="M7.62446 9.82422H7.07422V10.3745H7.62446V9.82422Z" fill="black"/>
<path d="M9.2768 9.82422H8.72656V10.3745H9.2768V9.82422Z" fill="black"/>
<path d="M10.3774 9.82422H9.82715V10.3745H10.3774V9.82422Z" fill="black"/>
<path d="M11.4775 9.82422H10.9272V10.3745H11.4775V9.82422Z" fill="black"/>
<path d="M12.0263 9.82422H11.4761V10.3745H12.0263V9.82422Z" fill="black"/>
<path d="M12.5776 9.82422H12.0273V10.3745H12.5776V9.82422Z" fill="black"/>
<path d="M8.17573 10.373H7.62549V10.9234H8.17573V10.373Z" fill="black"/>
<path d="M9.82612 10.373H9.27588V10.9234H9.82612V10.373Z" fill="black"/>
<path d="M10.9267 10.373H10.3765V10.9234H10.9267V10.373Z" fill="black"/>
<path d="M12.5776 10.373H12.0273V10.9234H12.5776V10.373Z" fill="black"/>
<path d="M13.6787 10.373H13.1284V10.9234H13.6787V10.373Z" fill="black"/>
<path d="M14.228 10.373H13.6777V10.9234H14.228V10.373Z" fill="black"/>
<path d="M14.7788 10.373H14.2285V10.9234H14.7788V10.373Z" fill="black"/>
<path d="M3.7729 10.9258H3.22266V11.4761H3.7729V10.9258Z" fill="black"/>
<path d="M4.32417 10.9258H3.77393V11.4761H4.32417V10.9258Z" fill="black"/>
<path d="M4.87348 10.9258H4.32324V11.4761H4.87348V10.9258Z" fill="black"/>
<path d="M5.42427 10.9258H4.87402V11.4761H5.42427V10.9258Z" fill="black"/>
<path d="M5.97456 10.9258H5.42432V11.4761H5.97456V10.9258Z" fill="black"/>
<path d="M6.52485 10.9258H5.97461V11.4761H6.52485V10.9258Z" fill="black"/>
<path d="M7.07563 10.9258H6.52539V11.4761H7.07563V10.9258Z" fill="black"/>
<path d="M8.72602 10.9258H8.17578V11.4761H8.72602V10.9258Z" fill="black"/>
<path d="M9.2768 10.9258H8.72656V11.4761H9.2768V10.9258Z" fill="black"/>
<path d="M9.82612 10.9258H9.27588V11.4761H9.82612V10.9258Z" fill="black"/>
<path d="M10.3774 10.9258H9.82715V11.4761H10.3774V10.9258Z" fill="black"/>
<path d="M10.9267 10.9258H10.3765V11.4761H10.9267V10.9258Z" fill="black"/>
<path d="M11.4775 10.9258H10.9272V11.4761H11.4775V10.9258Z" fill="black"/>
<path d="M12.0263 10.9258H11.4761V11.4761H12.0263V10.9258Z" fill="black"/>
<path d="M12.5776 10.9258H12.0273V11.4761H12.5776V10.9258Z" fill="black"/>
<path d="M13.6787 10.9258H13.1284V11.4761H13.6787V10.9258Z" fill="black"/>
<path d="M3.7729 11.4727H3.22266V12.023H3.7729V11.4727Z" fill="black"/>
<path d="M7.07563 11.4727H6.52539V12.023H7.07563V11.4727Z" fill="black"/>
<path d="M8.72602 11.4727H8.17578V12.023H8.72602V11.4727Z" fill="black"/>
<path d="M9.2768 11.4727H8.72656V12.023H9.2768V11.4727Z" fill="black"/>
<path d="M13.1269 11.4727H12.5767V12.023H13.1269V11.4727Z" fill="black"/>
<path d="M13.6787 11.4727H13.1284V12.023H13.6787V11.4727Z" fill="black"/>
<path d="M14.228 11.4727H13.6777V12.023H14.228V11.4727Z" fill="black"/>
<path d="M3.7729 12.0273H3.22266V12.5777H3.7729V12.0273Z" fill="black"/>
<path d="M4.87348 12.0273H4.32324V12.5777H4.87348V12.0273Z" fill="black"/>
<path d="M5.42427 12.0273H4.87402V12.5777H5.42427V12.0273Z" fill="black"/>
<path d="M5.97456 12.0273H5.42432V12.5777H5.97456V12.0273Z" fill="black"/>
<path d="M7.07563 12.0273H6.52539V12.5777H7.07563V12.0273Z" fill="black"/>
<path d="M8.72602 12.0273H8.17578V12.5777H8.72602V12.0273Z" fill="black"/>
<path d="M9.2768 12.0273H8.72656V12.5777H9.2768V12.0273Z" fill="black"/>
<path d="M10.3774 12.0273H9.82715V12.5777H10.3774V12.0273Z" fill="black"/>
<path d="M11.4775 12.0273H10.9272V12.5777H11.4775V12.0273Z" fill="black"/>
<path d="M12.0263 12.0273H11.4761V12.5777H12.0263V12.0273Z" fill="black"/>
<path d="M13.1269 12.0273H12.5767V12.5777H13.1269V12.0273Z" fill="black"/>
<path d="M13.6787 12.0273H13.1284V12.5777H13.6787V12.0273Z" fill="black"/>
<path d="M3.7729 12.5781H3.22266V13.1284H3.7729V12.5781Z" fill="black"/>
<path d="M4.87348 12.5781H4.32324V13.1284H4.87348V12.5781Z" fill="black"/>
<path d="M5.42427 12.5781H4.87402V13.1284H5.42427V12.5781Z" fill="black"/>
<path d="M5.97456 12.5781H5.42432V13.1284H5.97456V12.5781Z" fill="black"/>
<path d="M7.07563 12.5781H6.52539V13.1284H7.07563V12.5781Z" fill="black"/>
<path d="M8.17573 12.5781H7.62549V13.1284H8.17573V12.5781Z" fill="black"/>
<path d="M8.72602 12.5781H8.17578V13.1284H8.72602V12.5781Z" fill="black"/>
<path d="M9.2768 12.5781H8.72656V13.1284H9.2768V12.5781Z" fill="black"/>
<path d="M9.82612 12.5781H9.27588V13.1284H9.82612V12.5781Z" fill="black"/>
<path d="M11.4775 12.5781H10.9272V13.1284H11.4775V12.5781Z" fill="black"/>
<path d="M12.0263 12.5781H11.4761V13.1284H12.0263V12.5781Z" fill="black"/>
<path d="M14.228 12.5781H13.6777V13.1284H14.228V12.5781Z" fill="black"/>
<path d="M3.7729 13.123H3.22266V13.6734H3.7729V13.123Z" fill="black"/>
<path d="M4.87348 13.123H4.32324V13.6734H4.87348V13.123Z" fill="black"/>
<path d="M5.42427 13.123H4.87402V13.6734H5.42427V13.123Z" fill="black"/>
<path d="M5.97456 13.123H5.42432V13.6734H5.97456V13.123Z" fill="black"/>
<path d="M7.07563 13.123H6.52539V13.6734H7.07563V13.123Z" fill="black"/>
<path d="M8.17573 13.123H7.62549V13.6734H8.17573V13.123Z" fill="black"/>
<path d="M9.2768 13.123H8.72656V13.6734H9.2768V13.123Z" fill="black"/>
<path d="M10.3774 13.123H9.82715V13.6734H10.3774V13.123Z" fill="black"/>
<path d="M11.4775 13.123H10.9272V13.6734H11.4775V13.123Z" fill="black"/>
<path d="M13.1269 13.123H12.5767V13.6734H13.1269V13.123Z" fill="black"/>
<path d="M3.7729 13.6758H3.22266V14.2261H3.7729V13.6758Z" fill="black"/>
<path d="M7.07563 13.6758H6.52539V14.2261H7.07563V13.6758Z" fill="black"/>
<path d="M8.17573 13.6758H7.62549V14.2261H8.17573V13.6758Z" fill="black"/>
<path d="M8.72602 13.6758H8.17578V14.2261H8.72602V13.6758Z" fill="black"/>
<path d="M9.2768 13.6758H8.72656V14.2261H9.2768V13.6758Z" fill="black"/>
<path d="M10.9267 13.6758H10.3765V14.2261H10.9267V13.6758Z" fill="black"/>
<path d="M12.5776 13.6758H12.0273V14.2261H12.5776V13.6758Z" fill="black"/>
<path d="M14.7788 13.6758H14.2285V14.2261H14.7788V13.6758Z" fill="black"/>
<path d="M3.7729 14.2285H3.22266V14.7788H3.7729V14.2285Z" fill="black"/>
<path d="M4.32417 14.2285H3.77393V14.7788H4.32417V14.2285Z" fill="black"/>
<path d="M4.87348 14.2285H4.32324V14.7788H4.87348V14.2285Z" fill="black"/>
<path d="M5.42427 14.2285H4.87402V14.7788H5.42427V14.2285Z" fill="black"/>
<path d="M5.97456 14.2285H5.42432V14.7788H5.97456V14.2285Z" fill="black"/>
<path d="M6.52485 14.2285H5.97461V14.7788H6.52485V14.2285Z" fill="black"/>
<path d="M7.07563 14.2285H6.52539V14.7788H7.07563V14.2285Z" fill="black"/>
<path d="M8.17573 14.2285H7.62549V14.7788H8.17573V14.2285Z" fill="black"/>
<path d="M8.72602 14.2285H8.17578V14.7788H8.72602V14.2285Z" fill="black"/>
<path d="M10.9267 14.2285H10.3765V14.7788H10.9267V14.2285Z" fill="black"/>
<path d="M12.0263 14.2285H11.4761V14.7788H12.0263V14.2285Z" fill="black"/>
<path d="M12.5776 14.2285H12.0273V14.7788H12.5776V14.2285Z" fill="black"/>
<path d="M13.6787 14.2285H13.1284V14.7788H13.6787V14.2285Z" fill="black"/>
<path d="M6.33333 1H3C1.89543 1 1 1.89543 1 3V5.44444" stroke="black" stroke-width="0.888889" stroke-linecap="round"/>
<path d="M11.6667 1H15C16.1046 1 17 1.89543 17 3V5.44444" stroke="black" stroke-width="0.888889" stroke-linecap="round"/>
<path d="M6.33333 17H3C1.89543 17 1 16.1046 1 15V12.5556" stroke="black" stroke-width="0.888889" stroke-linecap="round"/>
<path d="M11.6667 17H15C16.1046 17 17 16.1046 17 15V12.5556" stroke="black" stroke-width="0.888889" stroke-linecap="round"/>
</g>
<defs>
<clipPath id="clip0_7_2">
<rect width="18" height="18" fill="black"/>
</clipPath>
</defs>
</svg>