<svg width="22" height="16" viewBox="0 0 22 16" fill="none" xmlns="http://www.w3.org/2000/svg">
<rect x="1.5" y="1.5" width="17" height="11" rx="1.5" stroke="black"/>
<path d="M20.5 4V12.5C20.5 13.6046 19.6046 14.5 18.5 14.5H4" stroke="black" stroke-linecap="round"/>
<path d="M10.3551 10.7273V3.45454H10.821V10.7273H10.3551ZM11.8125 5.71023C11.7822 5.44129 11.6572 5.23295 11.4375 5.08523C11.2178 4.93561 10.9413 4.86079 10.608 4.86079C10.3693 4.86079 10.1629 4.89867 9.98863 4.97443C9.81439 5.04829 9.67897 5.15057 9.58238 5.28125C9.48769 5.41004 9.44034 5.55682 9.44034 5.72159C9.44034 5.85985 9.47254 5.97917 9.53693 6.07954C9.60322 6.17992 9.68939 6.2642 9.79545 6.33239C9.90341 6.39867 10.0189 6.45454 10.142 6.5C10.2651 6.54356 10.3835 6.57954 10.4972 6.60795L11.0653 6.75568C11.2509 6.80114 11.4413 6.86269 11.6364 6.94034C11.8314 7.01799 12.0123 7.12026 12.179 7.24716C12.3456 7.37405 12.4801 7.53125 12.5824 7.71875C12.6866 7.90625 12.7386 8.13068 12.7386 8.39204C12.7386 8.72159 12.6534 9.0142 12.483 9.26989C12.3144 9.52557 12.0691 9.72727 11.7472 9.875C11.4271 10.0227 11.0398 10.0966 10.5852 10.0966C10.1496 10.0966 9.77272 10.0275 9.45454 9.8892C9.13636 9.75095 8.88731 9.55492 8.70738 9.30114C8.52746 9.04545 8.42803 8.74242 8.40909 8.39204H9.28977C9.30682 8.60227 9.375 8.77746 9.49432 8.91761C9.61553 9.05587 9.76988 9.15909 9.95738 9.22727C10.1468 9.29356 10.3542 9.3267 10.5795 9.3267C10.8276 9.3267 11.0483 9.28788 11.2415 9.21023C11.4366 9.13068 11.59 9.02083 11.7017 8.88068C11.8134 8.73864 11.8693 8.57292 11.8693 8.38352C11.8693 8.21117 11.8201 8.07007 11.7216 7.96023C11.625 7.85038 11.4934 7.75947 11.3267 7.6875C11.1619 7.61553 10.9754 7.55208 10.767 7.49716L10.0795 7.30966C9.61363 7.18276 9.24432 6.99621 8.97159 6.75C8.70075 6.50379 8.56534 6.17803 8.56534 5.77273C8.56534 5.4375 8.65625 5.14489 8.83807 4.89489C9.01988 4.64489 9.2661 4.45076 9.5767 4.3125C9.88731 4.17235 10.2377 4.10227 10.6278 4.10227C11.0218 4.10227 11.3693 4.1714 11.6705 4.30966C11.9735 4.44792 12.2121 4.63826 12.3864 4.88068C12.5606 5.12121 12.6515 5.39773 12.6591 5.71023H11.8125Z" fill="black"/>
</svg>