<svg width="14" height="14" viewBox="0 0 14 14" fill="none" xmlns="http://www.w3.org/2000/svg">
<g clip-path="url(#clip0_3486_28)">
<path fill-rule="evenodd" clip-rule="evenodd" d="M7 14C10.866 14 14 10.866 14 7C14 3.13401 10.866 0 7 0C3.13401 0 0 3.13401 0 7C0 10.866 3.13401 14 7 14ZM9.45103 9.48743L11.9038 9.65149C12.3112 8.95696 12.5764 8.16672 12.6584 7.32454L10.5776 6.01477C10.46 5.93821 10.3698 5.82336 10.326 5.68938C10.2823 5.5554 10.2877 5.41047 10.3397 5.27922L11.253 2.99875C10.7088 2.38625 10.0334 1.89133 9.27329 1.55774L7.38384 3.13274C7.2772 3.22297 7.13774 3.27219 6.99829 3.27219C6.85884 3.27219 6.72212 3.22297 6.61274 3.13274L4.72329 1.55774C3.96313 1.89133 3.28774 2.38625 2.7436 2.99875L3.65415 5.27922C3.7061 5.41047 3.71157 5.5554 3.66782 5.68938C3.62407 5.82336 3.53657 5.93821 3.41626 6.01477L1.33813 7.32454C1.41743 8.16672 1.6854 8.95696 2.09282 9.65149L4.54556 9.48743C4.68774 9.47922 4.82993 9.51751 4.94204 9.60227C5.05415 9.68704 5.13618 9.80735 5.17173 9.94407L5.77329 12.3284C6.16978 12.4132 6.5772 12.4597 6.99829 12.4597C7.41938 12.4597 7.82954 12.4159 8.22329 12.3284L8.82485 9.94407C8.85767 9.80462 8.9397 9.68704 9.05454 9.60227C9.16938 9.51751 9.30884 9.47922 9.45103 9.48743ZM5.30298 5.81516L6.61274 4.86633C6.84243 4.69954 7.15415 4.69954 7.38384 4.86633V4.8636L8.6936 5.81516C8.92329 5.98196 9.01899 6.27727 8.93149 6.54797L8.4311 8.08743C8.3436 8.35813 8.09204 8.54133 7.80767 8.54133H6.18892C5.90454 8.54133 5.65298 8.35813 5.56548 8.08743L5.06509 6.54797C4.97759 6.27727 5.07329 5.98196 5.30298 5.81516Z" fill="black"/>
</g>
<defs>
<clipPath id="clip0_3486_28">
<rect width="14" height="14" fill="white"/>
</clipPath>
</defs>
</svg>
